<svg xmlns="http://www.w3.org/2000/svg" width="18.859" height="7.485" viewBox="0 0 18.859 7.485"><defs><style>.a{fill:#532fe6;}</style></defs><g transform="translate(-936.201 -584.229)"><g transform="translate(936.201 584.229)"><path class="a" d="M937.155,585.182a3.629,3.629,0,0,1,2.682-.953h6.146a3.2,3.2,0,0,1,2.517.953,5.006,5.006,0,0,1,0,5.578,3.2,3.2,0,0,1-2.517.953h-6.146a3.624,3.624,0,0,1-2.69-.953,4.568,4.568,0,0,1,.007-5.578Zm1.721,3.336a2.025,2.025,0,0,0,.841.141h6.311a1.523,1.523,0,0,0,.684-.132.544.544,0,0,0,.263-.538q0-.759-.977-.759h-6.3a1.769,1.769,0,0,0-.841.159.607.607,0,0,0-.286.583A.545.545,0,0,0,938.876,588.519Z" transform="translate(-936.201 -584.229)"/></g><g transform="translate(950.312 585.066)"><path class="a" d="M1151.643,598.8h1.533v-1.783h1.7V598.8h1.518v1.995h-1.518v1.8h-1.7v-1.8h-1.533Z" transform="translate(-1151.643 -597.013)"/></g></g></svg>