<svg xmlns="http://www.w3.org/2000/svg" width="18.061" height="18.061" viewBox="0 0 18.061 18.061"><defs><style>.a{fill:#532fe6;}</style></defs><g transform="translate(-360 -530.877)"><g transform="translate(360 530.877)"><path class="a" d="M378.061,533.673V535a3.848,3.848,0,0,0-2.8-1.2H362.8A3.848,3.848,0,0,0,360,535v-1.328a2.8,2.8,0,0,1,2.8-2.8h12.469A2.8,2.8,0,0,1,378.061,533.673Z" transform="translate(-360 -530.877)"/><path class="a" d="M378.061,581.32v.6a3.751,3.751,0,0,0-2.8-1.271H362.8a3.751,3.751,0,0,0-2.8,1.271v-.6a2.8,2.8,0,0,1,2.8-2.8h12.469A2.8,2.8,0,0,1,378.061,581.32Z" transform="translate(-360 -574.54)"/><path class="a" d="M375.264,616.637H362.8a2.917,2.917,0,0,0-2.8,3.018v5.075a2.8,2.8,0,0,0,2.8,2.8h12.468a2.8,2.8,0,0,0,2.8-2.8v-5.075A2.917,2.917,0,0,0,375.264,616.637Zm-3.683,6.789h-1.609a.573.573,0,0,1-.572-.572v-1.609a.573.573,0,0,1,.572-.573h1.609a.573.573,0,0,1,.572.573v1.609A.573.573,0,0,1,371.581,623.426ZM370,624.4H366.8a.781.781,0,0,1-.781-.781v-3.195a.781.781,0,0,1,.781-.781H370a.78.78,0,0,1,.763.614h-.786a.992.992,0,0,0-.99.991v1.609a.991.991,0,0,0,.99.99h.771A.782.782,0,0,1,370,624.4Z" transform="translate(-360 -609.466)"/></g><g transform="translate(360 534.861)"><path class="a" d="M378.061,581.32v.6a3.751,3.751,0,0,0-2.8-1.271H362.8a3.751,3.751,0,0,0-2.8,1.271v-.6a2.8,2.8,0,0,1,2.8-2.8h12.469A2.8,2.8,0,0,1,378.061,581.32Z" transform="translate(-360 -578.524)"/><path class="a" d="M375.264,616.637H362.8a2.917,2.917,0,0,0-2.8,3.018v5.075a2.8,2.8,0,0,0,2.8,2.8h12.468a2.8,2.8,0,0,0,2.8-2.8v-5.075A2.917,2.917,0,0,0,375.264,616.637Zm-3.683,6.789h-1.609a.573.573,0,0,1-.572-.572v-1.609a.573.573,0,0,1,.572-.573h1.609a.573.573,0,0,1,.572.573v1.609A.573.573,0,0,1,371.581,623.426ZM370,624.4H366.8a.781.781,0,0,1-.781-.781v-3.195a.781.781,0,0,1,.781-.781H370a.78.78,0,0,1,.763.614h-.786a.992.992,0,0,0-.99.991v1.609a.991.991,0,0,0,.99.99h.771A.782.782,0,0,1,370,624.4Z" transform="translate(-360 -613.45)"/></g><g transform="translate(360 538.048)"><path class="a" d="M375.264,616.637H362.8a2.917,2.917,0,0,0-2.8,3.018v5.075a2.8,2.8,0,0,0,2.8,2.8h12.468a2.8,2.8,0,0,0,2.8-2.8v-5.075A2.917,2.917,0,0,0,375.264,616.637Zm-3.683,6.789h-1.609a.573.573,0,0,1-.572-.572v-1.609a.573.573,0,0,1,.572-.573h1.609a.573.573,0,0,1,.572.573v1.609A.573.573,0,0,1,371.581,623.426ZM370,624.4H366.8a.781.781,0,0,1-.781-.781v-3.195a.781.781,0,0,1,.781-.781H370a.78.78,0,0,1,.763.614h-.786a.992.992,0,0,0-.99.991v1.609a.991.991,0,0,0,.99.99h.771A.782.782,0,0,1,370,624.4Z" transform="translate(-360 -616.637)"/></g><g transform="translate(368.983 541.666)"><path class="a" d="M469.224,660.074v.251h-.8a.573.573,0,0,0-.572.573v1.609a.573.573,0,0,0,.572.572h.8v.209a.781.781,0,0,1-.033.209h-.771a.991.991,0,0,1-.99-.99V660.9a.992.992,0,0,1,.99-.991h.786A.732.732,0,0,1,469.224,660.074Z" transform="translate(-467.43 -659.907)"/><g transform="translate(0 0)"><path class="a" d="M472.32,662.407h-1.609a.781.781,0,0,0-.781.782V664.8a.781.781,0,0,0,.781.781h1.609a.781.781,0,0,0,.781-.781v-1.609A.782.782,0,0,0,472.32,662.407Zm.572,2.391a.573.573,0,0,1-.572.572h-1.609a.573.573,0,0,1-.572-.572v-1.609a.573.573,0,0,1,.572-.573h1.609a.573.573,0,0,1,.572.573Z" transform="translate(-469.721 -662.198)"/><path class="a" d="M470.029,659.907H468.42a.992.992,0,0,0-.99.991v1.609a.991.991,0,0,0,.99.99h1.609a.991.991,0,0,0,.99-.99V660.9A.992.992,0,0,0,470.029,659.907Zm.572,2.6a.573.573,0,0,1-.572.572H468.42a.573.573,0,0,1-.572-.572V660.9a.573.573,0,0,1,.572-.573h1.609a.573.573,0,0,1,.572.573Z" transform="translate(-467.43 -659.907)"/></g></g></g></svg>