<svg xmlns="http://www.w3.org/2000/svg" xmlns:xlink="http://www.w3.org/1999/xlink" width="35.5" height="35" viewBox="0 0 35.5 35"><defs><style>.a{fill:#ed462f;}.b{fill:#fff;}.c{filter:url(#a);}</style><filter id="a" x="0" y="0" width="35.5" height="35" filterUnits="userSpaceOnUse"><feOffset dx="5" dy="3" input="SourceAlpha"/><feGaussianBlur stdDeviation="1.5" result="b"/><feFlood flood-opacity="0.161"/><feComposite operator="in" in2="b"/><feComposite in="SourceGraphic"/></filter></defs><g transform="translate(-783 -621.5)"><g class="c" transform="matrix(1, 0, 0, 1, 783, 621.5)"><rect class="a" width="26" height="26" rx="7" transform="translate(0 1.5)"/></g><path class="b" d="M16.053,6.348l-1.264-.275a6.876,6.876,0,0,0-.407-.981L15.082,4a.491.491,0,0,0-.066-.613L13.048,1.423a.491.491,0,0,0-.613-.066l-1.088.7a6.876,6.876,0,0,0-.981-.407L10.092.387A.491.491,0,0,0,9.612,0H6.828a.491.491,0,0,0-.48.387L6.073,1.65a6.876,6.876,0,0,0-.981.407L4,1.357a.491.491,0,0,0-.613.066L1.423,3.392A.491.491,0,0,0,1.357,4l.7,1.088a6.876,6.876,0,0,0-.407.981L.387,6.348A.491.491,0,0,0,0,6.828V9.612a.491.491,0,0,0,.387.48l1.264.275a6.876,6.876,0,0,0,.407.981l-.7,1.088a.491.491,0,0,0,.066.613l1.968,1.968A.491.491,0,0,0,4,15.082l1.088-.7a6.876,6.876,0,0,0,.981.407l.275,1.264a.491.491,0,0,0,.48.387H9.612a.491.491,0,0,0,.48-.387l.275-1.264a6.876,6.876,0,0,0,.981-.407l1.088.7a.491.491,0,0,0,.613-.066l1.968-1.968a.491.491,0,0,0,.066-.613l-.7-1.088a6.876,6.876,0,0,0,.407-.981l1.264-.275a.491.491,0,0,0,.387-.48V6.828A.491.491,0,0,0,16.053,6.348ZM11.167,8.22A2.947,2.947,0,1,1,8.22,5.272,2.951,2.951,0,0,1,11.167,8.22Zm0,0" transform="translate(788 628)"/></g></svg>