<svg xmlns="http://www.w3.org/2000/svg" width="18.525" height="19.1" viewBox="0 0 18.525 19.1"><defs><style>.a{fill:#532fe6;}</style></defs><g transform="translate(-75.536 -531.467)"><path class="a" d="M173.1,650.159a2.013,2.013,0,0,1,.129.784v7.239c0,.007,0,.013,0,.02a.26.26,0,0,1-.261.258h-.874a.26.26,0,0,1-.261-.259v-7.223q0-1.121.741-1.12A.512.512,0,0,1,173.1,650.159Z" transform="translate(-87.759 -107.893)"/><path class="a" d="M93.646,540.947H92.174a.414.414,0,0,0-.414.414v8.792a.414.414,0,0,1-.414.414H88.86a.411.411,0,0,1-.409-.413V543.1a4.028,4.028,0,0,0-.93-2.887,4.292,4.292,0,0,0-5.446,0,4.028,4.028,0,0,0-.931,2.887v7.052a.411.411,0,0,1-.409.413H78.249a.414.414,0,0,1-.414-.414v-8.792a.414.414,0,0,0-.414-.414H75.95a.414.414,0,0,1-.293-.706l8.515-8.515a.884.884,0,0,1,1.25,0l8.516,8.515A.414.414,0,0,1,93.646,540.947Z"/></g></svg>