<svg xmlns="http://www.w3.org/2000/svg" width="18.691" height="18.691" viewBox="0 0 18.691 18.691"><defs><style>.a{fill:#ed462f;}</style></defs><path class="a" d="M663.516,533.37h-13.6a2.544,2.544,0,0,0-2.545,2.545v13.6a2.545,2.545,0,0,0,2.545,2.545h13.6a2.545,2.545,0,0,0,2.545-2.545v-13.6A2.545,2.545,0,0,0,663.516,533.37Zm-9.653,14.719h-3.016l-1.361-11.038h2.105l.808,7.509.719-7.509h2.1Zm4.018,0h-2.13V537.064h2.13Zm5.75-5.2a1.921,1.921,0,0,1-1.8.834h-.9v4.364h-2.169V537.064h2.914a2.092,2.092,0,0,1,1.886.854,4.539,4.539,0,0,1,.565,2.5A4.9,4.9,0,0,1,663.63,542.891Z" transform="translate(-647.37 -533.37)"/></svg>